<mxfile host="app.diagrams.net" modified="2024-04-28T09:40:07.574Z" agent="Mozilla/5.0 (Windows NT 10.0; Win64; x64) AppleWebKit/537.36 (KHTML, like Gecko) Chrome/124.0.0.0 Safari/537.36" etag="f99Xa3M8H3hyNAvFpmNv" version="24.3.0" type="device">
  <diagram id="THppnOg4eTJ66ANaUbbf" name="第 1 页">
    <mxGraphModel dx="3848" dy="1145" grid="0" gridSize="10" guides="1" tooltips="1" connect="1" arrows="1" fold="1" page="0" pageScale="1" pageWidth="827" pageHeight="1169" background="none" math="0" shadow="0">
      <root>
        <mxCell id="0" />
        <mxCell id="1" parent="0" />
        <mxCell id="node1" value="&lt;p style=&quot;text-align: center; margin: 4px 0px 0px;&quot;&gt;&lt;span style=&quot;background-color: initial; text-align: left;&quot;&gt;&lt;b&gt;Grade information&amp;nbsp;&lt;/b&gt;&lt;/span&gt;&lt;b&gt; &lt;/b&gt;&lt;/p&gt;&lt;hr size=&quot;1&quot;&gt;&lt;p style=&quot;margin:0 0 0 4px;line-height:1.6;&quot;&gt;- Grade information Service:&amp;nbsp; Grade information Service&lt;/p&gt;&lt;hr size=&quot;1&quot;&gt;&lt;p style=&quot;margin:0 0 0 4px;line-height:1.6;&quot;&gt;+ page(Map&amp;lt;String, Object&amp;gt;, ChengjixinxiEntity, HttpServletRequest): R&lt;br&gt;+ list(Map&amp;lt;String, Object&amp;gt;, ChengjixinxiEntity, HttpServletRequest): R&lt;br&gt;+ remindCount(String, HttpServletRequest, String, Map&amp;lt;String, Object&amp;gt;): R&lt;br&gt;+ info(Long): R&lt;br&gt;+ delete(Long[]): R&lt;br&gt;+ add(ChengjixinxiEntity, HttpServletRequest): R&lt;br&gt;+ group(String, HttpServletRequest): R&lt;br&gt;+ valueDay(String, String, String, HttpServletRequest): R&lt;br&gt;+ update(ChengjixinxiEntity, HttpServletRequest): R&lt;br&gt;+ value(String, String, HttpServletRequest): R&lt;br&gt;+ list(ChengjixinxiEntity): R&lt;br&gt;+ save(ChengjixinxiEntity, HttpServletRequest): R&lt;br&gt;+ query(ChengjixinxiEntity): R&lt;br&gt;+ detail(Long): R&lt;/p&gt;" style="verticalAlign=top;align=left;overflow=fill;fontSize=14;fontFamily=Helvetica;html=1;rounded=0;shadow=0;comic=0;labelBackgroundColor=none;strokeWidth=1;" parent="1" vertex="1">
          <mxGeometry x="1312.5" y="1120" width="439" height="400" as="geometry" />
        </mxCell>
        <mxCell id="47u4i2-XbKpT3ctxzw9k-3" value="&lt;p style=&quot;margin:0px;margin-top:4px;text-align:center;&quot;&gt;&lt;b&gt;&amp;nbsp;scourse information  &lt;/b&gt;&lt;/p&gt;&lt;hr size=&quot;1&quot;&gt;&lt;p style=&quot;margin:0 0 0 4px;line-height:1.6;&quot;&gt;- scourse informationService:&amp;nbsp; scourse informationService&lt;/p&gt;&lt;hr size=&quot;1&quot;&gt;&lt;p style=&quot;margin:0 0 0 4px;line-height:1.6;&quot;&gt;+ list(Discus scourse informationEntity): R&lt;br&gt;+ list(Map&amp;lt;String, Object&amp;gt;, Discus scourse informationEntity, HttpServletRequest): R&lt;br&gt;+ remindCount(String, HttpServletRequest, String, Map&amp;lt;String, Object&amp;gt;): R&lt;br&gt;+ delete(Long[]): R&lt;br&gt;+ query(Discus scourse informationEntity): R&lt;br&gt;+ detail(Long): R&lt;br&gt;+ update(Discus scourse informationEntity, HttpServletRequest): R&lt;br&gt;+ page(Map&amp;lt;String, Object&amp;gt;, Discus scourse informationEntity, HttpServletRequest): R&lt;br&gt;+ info(Long): R&lt;br&gt;+ add(Discus scourse informationEntity, HttpServletRequest): R&lt;br&gt;+ save(Discus scourse informationEntity, HttpServletRequest): R&lt;/p&gt;" style="verticalAlign=top;align=left;overflow=fill;fontSize=14;fontFamily=Helvetica;html=1;rounded=0;shadow=0;comic=0;labelBackgroundColor=none;strokeWidth=1;" vertex="1" parent="1">
          <mxGeometry x="52" y="1597" width="441" height="328" as="geometry" />
        </mxCell>
        <mxCell id="47u4i2-XbKpT3ctxzw9k-247" style="edgeStyle=orthogonalEdgeStyle;rounded=0;orthogonalLoop=1;jettySize=auto;html=1;entryX=0;entryY=0.5;entryDx=0;entryDy=0;endSize=30;endArrow=block;endFill=0;" edge="1" parent="1" source="47u4i2-XbKpT3ctxzw9k-5" target="47u4i2-XbKpT3ctxzw9k-9">
          <mxGeometry relative="1" as="geometry" />
        </mxCell>
        <mxCell id="47u4i2-XbKpT3ctxzw9k-251" style="edgeStyle=orthogonalEdgeStyle;rounded=0;orthogonalLoop=1;jettySize=auto;html=1;endArrow=none;endFill=0;" edge="1" parent="1" source="47u4i2-XbKpT3ctxzw9k-5" target="47u4i2-XbKpT3ctxzw9k-6">
          <mxGeometry relative="1" as="geometry" />
        </mxCell>
        <mxCell id="47u4i2-XbKpT3ctxzw9k-5" value="&lt;p style=&quot;margin:0px;margin-top:4px;text-align:center;&quot;&gt;&lt;b&gt;Student &lt;/b&gt;&lt;/p&gt;&lt;hr size=&quot;1&quot;/&gt;&lt;p style=&quot;margin:0 0 0 4px;line-height:1.6;&quot;&gt;- StudentService: StudentService&lt;br/&gt;- tokenService: TokenService&lt;/p&gt;&lt;hr size=&quot;1&quot;/&gt;&lt;p style=&quot;margin:0 0 0 4px;line-height:1.6;&quot;&gt;+ info(Long): R&lt;br/&gt;+ resetPass(String, HttpServletRequest): R&lt;br/&gt;+ add(XueshengEntity, HttpServletRequest): R&lt;br/&gt;+ detail(Long): R&lt;br/&gt;+ getCurrUser(HttpServletRequest): R&lt;br/&gt;+ query(StudentEntity): R&lt;br/&gt;+ register(studentEntity): R&lt;br/&gt;+ save(StudentEntity, HttpServletRequest): R&lt;br/&gt;+ logout(HttpServletRequest): R&lt;br/&gt;+ delete(Long[]): R&lt;br/&gt;+ login(String, String, String, HttpServletRequest): R&lt;br/&gt;+ page(Map&amp;lt;String, Object&amp;gt;, XueshengEntity, HttpServletRequest): R&lt;br/&gt;+ list(Map&amp;lt;String, Object&amp;gt;, StudentEntity, HttpServletRequest): R&lt;br/&gt;+ remindCount(String, HttpServletRequest, String, Map&amp;lt;String, Object&amp;gt;): R&lt;br/&gt;+ list(StudentEntity): R&lt;br/&gt;+ update(StudentEntity, HttpServletRequest): R&lt;/p&gt;" style="verticalAlign=top;align=left;overflow=fill;fontSize=14;fontFamily=Helvetica;html=1;rounded=0;shadow=0;comic=0;labelBackgroundColor=none;strokeWidth=1;" vertex="1" parent="1">
          <mxGeometry x="-30" y="480" width="452" height="472" as="geometry" />
        </mxCell>
        <mxCell id="47u4i2-XbKpT3ctxzw9k-253" style="edgeStyle=orthogonalEdgeStyle;rounded=0;orthogonalLoop=1;jettySize=auto;html=1;endArrow=none;endFill=0;startArrow=diamond;startFill=0;startSize=30;" edge="1" parent="1" source="47u4i2-XbKpT3ctxzw9k-6" target="47u4i2-XbKpT3ctxzw9k-3">
          <mxGeometry relative="1" as="geometry" />
        </mxCell>
        <mxCell id="47u4i2-XbKpT3ctxzw9k-259" style="edgeStyle=orthogonalEdgeStyle;rounded=0;orthogonalLoop=1;jettySize=auto;html=1;entryX=1;entryY=0.5;entryDx=0;entryDy=0;endArrow=none;endFill=0;startArrow=diamond;startFill=0;startSize=30;" edge="1" parent="1" source="47u4i2-XbKpT3ctxzw9k-6" target="47u4i2-XbKpT3ctxzw9k-12">
          <mxGeometry relative="1" as="geometry" />
        </mxCell>
        <mxCell id="47u4i2-XbKpT3ctxzw9k-6" value="&lt;p style=&quot;margin:0px;margin-top:4px;text-align:center;&quot;&gt;&lt;b&gt;Course selection information &lt;/b&gt;&lt;/p&gt;&lt;hr size=&quot;1&quot;/&gt;&lt;p style=&quot;margin:0 0 0 4px;line-height:1.6;&quot;&gt;- Course selection informationService: Course selection informationService&lt;/p&gt;&lt;hr size=&quot;1&quot;/&gt;&lt;p style=&quot;margin:0 0 0 4px;line-height:1.6;&quot;&gt;+ list(Map&amp;lt;String, Object&amp;gt;, Course selection informationEntity, HttpServletRequest): R&lt;br/&gt;+ detail(Long): R&lt;br/&gt;+ delete(Long[]): R&lt;br/&gt;+ add(Course selection informationEntity, HttpServletRequest): R&lt;br/&gt;+ remindCount(String, HttpServletRequest, String, Map&amp;lt;String, Object&amp;gt;): R&lt;br/&gt;+ save(Course selection informationEntity, HttpServletRequest): R&lt;br/&gt;+ query(Course selection informationEntity): R&lt;br/&gt;+ info(Long): R&lt;br/&gt;+ list(Course selection informationEntity): R&lt;br/&gt;+ update(Course selection informationEntity, HttpServletRequest): R&lt;br/&gt;+ page(Map&amp;lt;String, Object&amp;gt;, Course selection informationEntity, HttpServletRequest): R&lt;/p&gt;" style="verticalAlign=top;align=left;overflow=fill;fontSize=14;fontFamily=Helvetica;html=1;rounded=0;shadow=0;comic=0;labelBackgroundColor=none;strokeWidth=1;" vertex="1" parent="1">
          <mxGeometry x="50" y="1104.5" width="445" height="328" as="geometry" />
        </mxCell>
        <mxCell id="47u4i2-XbKpT3ctxzw9k-9" value="&lt;p style=&quot;margin:0px;margin-top:4px;text-align:center;&quot;&gt;&lt;b&gt;User &lt;/b&gt;&lt;/p&gt;&lt;hr size=&quot;1&quot;/&gt;&lt;p style=&quot;margin:0 0 0 4px;line-height:1.6;&quot;&gt;- tokenService: TokenService&lt;br/&gt;- userService: UserService&lt;/p&gt;&lt;hr size=&quot;1&quot;/&gt;&lt;p style=&quot;margin:0 0 0 4px;line-height:1.6;&quot;&gt;+ save(UserEntity): R&lt;br/&gt;+ logout(HttpServletRequest): R&lt;br/&gt;+ update(UserEntity): R&lt;br/&gt;+ login(String, String, String, HttpServletRequest): R&lt;br/&gt;+ resetPass(String, HttpServletRequest): R&lt;br/&gt;+ list(UserEntity): R&lt;br/&gt;+ page(Map&amp;lt;String, Object&amp;gt;, UserEntity): R&lt;br/&gt;+ getCurrUser(HttpServletRequest): R&lt;br/&gt;+ info(String): R&lt;br/&gt;+ delete(Long[]): R&lt;br/&gt;+ register(UserEntity): R&lt;/p&gt;" style="verticalAlign=top;align=left;overflow=fill;fontSize=14;fontFamily=Helvetica;html=1;rounded=0;shadow=0;comic=0;labelBackgroundColor=none;strokeWidth=1;" vertex="1" parent="1">
          <mxGeometry x="780" y="540" width="350" height="352" as="geometry" />
        </mxCell>
        <mxCell id="47u4i2-XbKpT3ctxzw9k-11" value="&lt;p style=&quot;margin:0px;margin-top:4px;text-align:center;&quot;&gt;&lt;b&gt;News &lt;/b&gt;&lt;/p&gt;&lt;hr size=&quot;1&quot;/&gt;&lt;p style=&quot;margin:0 0 0 4px;line-height:1.6;&quot;&gt;- newsService: NewsService&lt;/p&gt;&lt;hr size=&quot;1&quot;/&gt;&lt;p style=&quot;margin:0 0 0 4px;line-height:1.6;&quot;&gt;+ page(Map&amp;lt;String, Object&amp;gt;, NewsEntity, HttpServletRequest): R&lt;br/&gt;+ info(Long): R&lt;br/&gt;+ save(NewsEntity, HttpServletRequest): R&lt;br/&gt;+ update(NewsEntity, HttpServletRequest): R&lt;br/&gt;+ detail(Long): R&lt;br/&gt;+ list(Map&amp;lt;String, Object&amp;gt;, NewsEntity, HttpServletRequest): R&lt;br/&gt;+ list(NewsEntity): R&lt;br/&gt;+ remindCount(String, HttpServletRequest, String, Map&amp;lt;String, Object&amp;gt;): R&lt;br/&gt;+ query(NewsEntity): R&lt;br/&gt;+ delete(Long[]): R&lt;br/&gt;+ add(NewsEntity, HttpServletRequest): R&lt;/p&gt;" style="verticalAlign=top;align=left;overflow=fill;fontSize=14;fontFamily=Helvetica;html=1;rounded=0;shadow=0;comic=0;labelBackgroundColor=none;strokeWidth=1;" vertex="1" parent="1">
          <mxGeometry x="738" y="1597" width="434" height="328" as="geometry" />
        </mxCell>
        <mxCell id="47u4i2-XbKpT3ctxzw9k-12" value="&lt;p style=&quot;margin:0px;margin-top:4px;text-align:center;&quot;&gt;&lt;b&gt;Course type &lt;/b&gt;&lt;/p&gt;&lt;hr size=&quot;1&quot;/&gt;&lt;p style=&quot;margin:0 0 0 4px;line-height:1.6;&quot;&gt;- Course typeService: Course typeService&lt;/p&gt;&lt;hr size=&quot;1&quot;/&gt;&lt;p style=&quot;margin:0 0 0 4px;line-height:1.6;&quot;&gt;+ add(Course typeEntity, HttpServletRequest): R&lt;br/&gt;+ page(Map&amp;lt;String, Object&amp;gt;, Course typeEntity, HttpServletRequest): R&lt;br/&gt;+ list(Course typeEntity): R&lt;br/&gt;+ detail(Long): R&lt;br/&gt;+ info(Long): R&lt;br/&gt;+ query(Course typeEntity): R&lt;br/&gt;+ update(Course typeEntity, HttpServletRequest): R&lt;br/&gt;+ delete(Long[]): R&lt;br/&gt;+ list(Map&amp;lt;String, Object&amp;gt;, Course typeEntity, HttpServletRequest): R&lt;br/&gt;+ remindCount(String, HttpServletRequest, String, Map&amp;lt;String, Object&amp;gt;): R&lt;br/&gt;+ save(Course typeEntity, HttpServletRequest): R&lt;/p&gt;" style="verticalAlign=top;align=left;overflow=fill;fontSize=14;fontFamily=Helvetica;html=1;rounded=0;shadow=0;comic=0;labelBackgroundColor=none;strokeWidth=1;" vertex="1" parent="1">
          <mxGeometry x="-580" y="1104.5" width="443" height="328" as="geometry" />
        </mxCell>
        <mxCell id="47u4i2-XbKpT3ctxzw9k-248" style="edgeStyle=orthogonalEdgeStyle;rounded=0;orthogonalLoop=1;jettySize=auto;html=1;entryX=1;entryY=0.5;entryDx=0;entryDy=0;endArrow=block;endFill=0;targetPerimeterSpacing=-1;endSize=30;" edge="1" parent="1" source="47u4i2-XbKpT3ctxzw9k-13" target="47u4i2-XbKpT3ctxzw9k-9">
          <mxGeometry relative="1" as="geometry" />
        </mxCell>
        <mxCell id="47u4i2-XbKpT3ctxzw9k-258" style="edgeStyle=orthogonalEdgeStyle;rounded=0;orthogonalLoop=1;jettySize=auto;html=1;entryX=0.5;entryY=0;entryDx=0;entryDy=0;endArrow=none;endFill=0;" edge="1" parent="1" source="47u4i2-XbKpT3ctxzw9k-13" target="node1">
          <mxGeometry relative="1" as="geometry" />
        </mxCell>
        <mxCell id="47u4i2-XbKpT3ctxzw9k-13" value="&lt;p style=&quot;margin:0px;margin-top:4px;text-align:center;&quot;&gt;&lt;b&gt;Teacher&lt;/b&gt;&lt;/p&gt;&lt;hr size=&quot;1&quot;&gt;&lt;p style=&quot;margin:0 0 0 4px;line-height:1.6;&quot;&gt;- tokenService: TokenService&lt;br&gt;- teacherService: teacherService&lt;/p&gt;&lt;hr size=&quot;1&quot;&gt;&lt;p style=&quot;margin:0 0 0 4px;line-height:1.6;&quot;&gt;+ update(teacherEntity, HttpServletRequest): R&lt;br&gt;+ list(Map&amp;lt;String, Object&amp;gt;, teacherEntity, HttpServletRequest): R&lt;br&gt;+ detail(Long): R&lt;br&gt;+ remindCount(String, HttpServletRequest, String, Map&amp;lt;String, Object&amp;gt;): R&lt;br&gt;+ register(teacherEntity): R&lt;br&gt;+ save(teacherEntity, HttpServletRequest): R&lt;br&gt;+ query(teacherEntity): R&lt;br&gt;+ add(teacherEntity, HttpServletRequest): R&lt;br&gt;+ login(String, String, String, HttpServletRequest): R&lt;br&gt;+ info(Long): R&lt;br&gt;+ list(teacherEntity): R&lt;br&gt;+ getCurrUser(HttpServletRequest): R&lt;br&gt;+ resetPass(String, HttpServletRequest): R&lt;br&gt;+ logout(HttpServletRequest): R&lt;br&gt;+ delete(Long[]): R&lt;br&gt;+ page(Map&amp;lt;String, Object&amp;gt;, teacherEntity, HttpServletRequest): R&lt;/p&gt;" style="verticalAlign=top;align=left;overflow=fill;fontSize=14;fontFamily=Helvetica;html=1;rounded=0;shadow=0;comic=0;labelBackgroundColor=none;strokeWidth=1;" vertex="1" parent="1">
          <mxGeometry x="1310" y="480" width="444" height="472" as="geometry" />
        </mxCell>
        <mxCell id="47u4i2-XbKpT3ctxzw9k-246" style="edgeStyle=orthogonalEdgeStyle;rounded=0;orthogonalLoop=1;jettySize=auto;html=1;entryX=0.5;entryY=1;entryDx=0;entryDy=0;endArrow=block;endFill=0;startSize=17;endSize=30;" edge="1" parent="1" source="47u4i2-XbKpT3ctxzw9k-238" target="47u4i2-XbKpT3ctxzw9k-9">
          <mxGeometry relative="1" as="geometry" />
        </mxCell>
        <mxCell id="47u4i2-XbKpT3ctxzw9k-254" style="edgeStyle=orthogonalEdgeStyle;rounded=0;orthogonalLoop=1;jettySize=auto;html=1;entryX=0.5;entryY=0;entryDx=0;entryDy=0;endArrow=none;endFill=0;" edge="1" parent="1" source="47u4i2-XbKpT3ctxzw9k-238" target="47u4i2-XbKpT3ctxzw9k-11">
          <mxGeometry relative="1" as="geometry" />
        </mxCell>
        <mxCell id="47u4i2-XbKpT3ctxzw9k-238" value="&lt;span style=&quot;text-align: left;&quot;&gt;&lt;b&gt;Administrator +manageCourses()&lt;/b&gt;&lt;/span&gt;" style="swimlane;fontStyle=0;childLayout=stackLayout;horizontal=1;startSize=26;fillColor=none;horizontalStack=0;resizeParent=1;resizeParentMax=0;resizeLast=0;collapsible=1;marginBottom=0;whiteSpace=wrap;html=1;" vertex="1" parent="1">
          <mxGeometry x="725" y="1179" width="460" height="150" as="geometry" />
        </mxCell>
        <mxCell id="47u4i2-XbKpT3ctxzw9k-239" value="+manageTeachers()&lt;br&gt;+manageStudents()&lt;br&gt;+manageSchedules()&lt;br&gt;+manageCourseSelection()&lt;br&gt;+manageGrades()" style="text;strokeColor=none;fillColor=none;align=left;verticalAlign=top;spacingLeft=4;spacingRight=4;overflow=hidden;rotatable=0;points=[[0,0.5],[1,0.5]];portConstraint=eastwest;whiteSpace=wrap;html=1;" vertex="1" parent="47u4i2-XbKpT3ctxzw9k-238">
          <mxGeometry y="26" width="460" height="124" as="geometry" />
        </mxCell>
        <mxCell id="47u4i2-XbKpT3ctxzw9k-252" style="edgeStyle=orthogonalEdgeStyle;rounded=0;orthogonalLoop=1;jettySize=auto;html=1;entryX=1;entryY=0.5;entryDx=0;entryDy=0;endArrow=none;endFill=0;" edge="1" parent="1" source="47u4i2-XbKpT3ctxzw9k-239" target="47u4i2-XbKpT3ctxzw9k-6">
          <mxGeometry relative="1" as="geometry" />
        </mxCell>
        <mxCell id="47u4i2-XbKpT3ctxzw9k-256" value="" style="endArrow=none;startArrow=none;html=1;rounded=0;exitX=0;exitY=0;exitDx=0;exitDy=0;entryX=1;entryY=1;entryDx=0;entryDy=0;endFill=0;startFill=0;" edge="1" parent="1" source="47u4i2-XbKpT3ctxzw9k-238" target="47u4i2-XbKpT3ctxzw9k-5">
          <mxGeometry width="50" height="50" relative="1" as="geometry">
            <mxPoint x="870" y="1120" as="sourcePoint" />
            <mxPoint x="920" y="1070" as="targetPoint" />
          </mxGeometry>
        </mxCell>
        <mxCell id="47u4i2-XbKpT3ctxzw9k-257" value="" style="endArrow=none;html=1;rounded=0;entryX=0;entryY=1;entryDx=0;entryDy=0;exitX=1;exitY=0;exitDx=0;exitDy=0;endFill=0;" edge="1" parent="1" source="47u4i2-XbKpT3ctxzw9k-238" target="47u4i2-XbKpT3ctxzw9k-13">
          <mxGeometry width="50" height="50" relative="1" as="geometry">
            <mxPoint x="870" y="1120" as="sourcePoint" />
            <mxPoint x="920" y="1070" as="targetPoint" />
          </mxGeometry>
        </mxCell>
        <mxCell id="47u4i2-XbKpT3ctxzw9k-260" value="1" style="text;align=center;fontStyle=1;verticalAlign=middle;spacingLeft=3;spacingRight=3;strokeColor=none;rotatable=0;points=[[0,0.5],[1,0.5]];portConstraint=eastwest;html=1;" vertex="1" parent="1">
          <mxGeometry x="680" y="1130" width="80" height="26" as="geometry" />
        </mxCell>
        <mxCell id="47u4i2-XbKpT3ctxzw9k-261" value="1" style="text;align=center;fontStyle=1;verticalAlign=middle;spacingLeft=3;spacingRight=3;strokeColor=none;rotatable=0;points=[[0,0.5],[1,0.5]];portConstraint=eastwest;html=1;" vertex="1" parent="1">
          <mxGeometry x="260" y="1459" width="80" height="26" as="geometry" />
        </mxCell>
        <mxCell id="47u4i2-XbKpT3ctxzw9k-262" value="1" style="text;align=center;fontStyle=1;verticalAlign=middle;spacingLeft=3;spacingRight=3;strokeColor=none;rotatable=0;points=[[0,0.5],[1,0.5]];portConstraint=eastwest;html=1;" vertex="1" parent="1">
          <mxGeometry x="-28" y="1250" width="80" height="26" as="geometry" />
        </mxCell>
        <mxCell id="47u4i2-XbKpT3ctxzw9k-263" value="1" style="text;align=center;fontStyle=1;verticalAlign=middle;spacingLeft=3;spacingRight=3;strokeColor=none;rotatable=0;points=[[0,0.5],[1,0.5]];portConstraint=eastwest;html=1;" vertex="1" parent="1">
          <mxGeometry x="170" y="970" width="80" height="26" as="geometry" />
        </mxCell>
        <mxCell id="47u4i2-XbKpT3ctxzw9k-264" value="1" style="text;align=center;fontStyle=1;verticalAlign=middle;spacingLeft=3;spacingRight=3;strokeColor=none;rotatable=0;points=[[0,0.5],[1,0.5]];portConstraint=eastwest;html=1;" vertex="1" parent="1">
          <mxGeometry x="260" y="1078.5" width="80" height="26" as="geometry" />
        </mxCell>
        <mxCell id="47u4i2-XbKpT3ctxzw9k-265" value="*" style="text;align=center;fontStyle=1;verticalAlign=middle;spacingLeft=3;spacingRight=3;strokeColor=none;rotatable=0;points=[[0,0.5],[1,0.5]];portConstraint=eastwest;html=1;" vertex="1" parent="1">
          <mxGeometry x="400" y="944" width="80" height="26" as="geometry" />
        </mxCell>
        <mxCell id="47u4i2-XbKpT3ctxzw9k-267" value="*" style="text;align=center;fontStyle=1;verticalAlign=middle;spacingLeft=3;spacingRight=3;strokeColor=none;rotatable=0;points=[[0,0.5],[1,0.5]];portConstraint=eastwest;html=1;" vertex="1" parent="1">
          <mxGeometry x="1230" y="944" width="80" height="26" as="geometry" />
        </mxCell>
        <mxCell id="47u4i2-XbKpT3ctxzw9k-269" value="*" style="text;align=center;fontStyle=1;verticalAlign=middle;spacingLeft=3;spacingRight=3;strokeColor=none;rotatable=0;points=[[0,0.5],[1,0.5]];portConstraint=eastwest;html=1;" vertex="1" parent="1">
          <mxGeometry x="250" y="1571" width="80" height="26" as="geometry" />
        </mxCell>
        <mxCell id="47u4i2-XbKpT3ctxzw9k-270" value="*" style="text;align=center;fontStyle=1;verticalAlign=middle;spacingLeft=3;spacingRight=3;strokeColor=none;rotatable=0;points=[[0,0.5],[1,0.5]];portConstraint=eastwest;html=1;" vertex="1" parent="1">
          <mxGeometry x="-170" y="1255.5" width="80" height="26" as="geometry" />
        </mxCell>
        <mxCell id="47u4i2-XbKpT3ctxzw9k-273" value="1" style="text;align=center;fontStyle=1;verticalAlign=middle;spacingLeft=3;spacingRight=3;strokeColor=none;rotatable=0;points=[[0,0.5],[1,0.5]];portConstraint=eastwest;html=1;" vertex="1" parent="1">
          <mxGeometry x="1110" y="1149" width="80" height="30" as="geometry" />
        </mxCell>
        <mxCell id="47u4i2-XbKpT3ctxzw9k-275" value="" style="endArrow=none;html=1;rounded=0;exitX=1;exitY=0.822;exitDx=0;exitDy=0;exitPerimeter=0;entryX=0;entryY=0;entryDx=0;entryDy=0;endFill=0;" edge="1" parent="1" source="47u4i2-XbKpT3ctxzw9k-5" target="node1">
          <mxGeometry width="50" height="50" relative="1" as="geometry">
            <mxPoint x="630" y="990" as="sourcePoint" />
            <mxPoint x="680" y="940" as="targetPoint" />
          </mxGeometry>
        </mxCell>
        <mxCell id="47u4i2-XbKpT3ctxzw9k-276" style="edgeStyle=orthogonalEdgeStyle;rounded=0;orthogonalLoop=1;jettySize=auto;html=1;entryX=0;entryY=0.5;entryDx=0;entryDy=0;endArrow=none;endFill=0;" edge="1" parent="1" source="47u4i2-XbKpT3ctxzw9k-239" target="node1">
          <mxGeometry relative="1" as="geometry" />
        </mxCell>
      </root>
    </mxGraphModel>
  </diagram>
</mxfile>
